<?xml version="1.0" encoding="UTF-8" standalone="no"?>
<!-- Created with Inkscape (http://www.inkscape.org/) -->

<svg
   width="30"
   height="20"
   viewBox="0 0 202.92033 140.18867"
   version="1.1"
   id="svg5"
   inkscape:version="1.1.2 (0a00cf5339, 2022-02-04)"
   sodipodi:docname="nzta-marae.svg"
   xmlns:inkscape="http://www.inkscape.org/namespaces/inkscape"
   xmlns:sodipodi="http://sodipodi.sourceforge.net/DTD/sodipodi-0.dtd"
   xmlns="http://www.w3.org/2000/svg"
   xmlns:svg="http://www.w3.org/2000/svg">
  <sodipodi:namedview
     id="namedview7"
     pagecolor="#ffffff"
     bordercolor="#666666"
     borderopacity="1.0"
     inkscape:pageshadow="2"
     inkscape:pageopacity="0.0"
     inkscape:pagecheckerboard="0"
     inkscape:document-units="mm"
     showgrid="false"
     inkscape:zoom="0.60756173"
     inkscape:cx="244.41961"
     inkscape:cy="329.18466"
     inkscape:window-width="1920"
     inkscape:window-height="1020"
     inkscape:window-x="0"
     inkscape:window-y="0"
     inkscape:window-maximized="1"
     inkscape:current-layer="g47" />
  <defs
     id="defs2">
    <clipPath
       clipPathUnits="userSpaceOnUse"
       id="clipPath57">
      <path
         d="M 0,3118.11 H 2409.45 V -1.06812e-4 H 0 Z"
         id="path55" />
    </clipPath>
    <clipPath
       clipPathUnits="userSpaceOnUse"
       id="clipPath71">
      <path
         d="M 0,3118.11 H 2409.45 V -1.06812e-4 H 0 Z"
         id="path69" />
    </clipPath>
    <clipPath
       clipPathUnits="userSpaceOnUse"
       id="clipPath85">
      <path
         d="M 0,3118.11 H 2409.45 V -1.06812e-4 H 0 Z"
         id="path83" />
    </clipPath>
    <clipPath
       clipPathUnits="userSpaceOnUse"
       id="clipPath103">
      <path
         d="M 0,3118.11 H 2409.45 V -1.06812e-4 H 0 Z"
         id="path101" />
    </clipPath>
  </defs>
  <g
     inkscape:label="Layer 1"
     inkscape:groupmode="layer"
     id="layer1"
     transform="translate(-5.4683893,-35.150649)">
    <g
       id="g47"
       inkscape:label="Cultural sign 750x1000cm - Marae"
       transform="matrix(0.13602265,0,0,-0.15379765,-15.621792,323.77936)">
      <g
         id="g49"
         transform="matrix(0.61915104,0,0,0.29232896,155.04904,965.16444)">
        <g
           id="g51">
          <g
             id="g53"
             clip-path="url(#clipPath57)">
            <g
               id="g59"
               transform="translate(0,3118.1104)">
              <path
                 d="M 0,0 V 0 -3118.11 H 2409.449 V 0 Z"
                 style="fill:#b1212c;fill-opacity:1;fill-rule:nonzero;stroke:none"
                 id="path61" />
            </g>
          </g>
        </g>
      </g>
      <g
         id="g63"
         transform="translate(-300.29129,-835.53296)">
        <g
           id="g65">
          <g
             id="g67"
             clip-path="url(#clipPath71)">
            <g
               id="g73"
               transform="translate(1913.3857,1985.103)">
              <path
                 d="m 0,0 -137.013,126.219 v 94.467 c 0,11.999 -9.724,21.724 -21.722,21.724 h -58.239 c -11.997,0 -21.721,-9.725 -21.721,-21.724 v -0.795 l -416.009,383.233 v 62.837 c 0,11.996 -9.725,21.722 -21.723,21.722 h -58.238 c -11.995,0 -21.723,-9.726 -21.723,-21.722 v -57.026 l -416.497,-383.682 c -2.099,9.804 -10.804,17.157 -21.232,17.157 h -58.239 c -11.998,0 -21.722,-9.725 -21.722,-21.724 v -88.654 l -143.246,-131.96 63.915,-69.695 79.331,73.08 v -151.312 h 101.682 V 97.129 l 463.697,427.162 470.004,-432.976 v -239.17 h 101.682 V -2.357 l 73.098,-67.338 z m -914.264,266.414 -208.713,-187.09 v -227.179 h 183.841 V 67.962 h 128.231 V -147.855 H -288.13 V 79.324 l -208.713,187.09 -208.709,187.095 z M -631.953,72.6 h 181.089 V -43.131 h -181.089 z"
                 style="fill:#ffffff;fill-opacity:1;fill-rule:nonzero;stroke:none"
                 id="path75" />
            </g>
          </g>
        </g>
      </g>
      <g
         id="g95">
        <g
           id="g97">
          <g
             id="g99"
             clip-path="url(#clipPath103)">
            <g
               id="g105"
               transform="translate(255.118,2976.3779)">
              <path
                 d="M 0,0 C -62.621,0 -113.386,-50.765 -113.386,-113.386 V -2721.26 c 0,-62.621 50.765,-113.386 113.386,-113.386 h 1899.213 c 62.621,0 113.385,50.765 113.385,113.386 V -113.386 C 2012.598,-50.765 1961.834,0 1899.213,0 Z"
                 style="fill:none;stroke:#b1212c;stroke-width:2;stroke-linecap:butt;stroke-linejoin:miter;stroke-miterlimit:4;stroke-dasharray:none;stroke-opacity:1"
                 id="path107" />
            </g>
          </g>
        </g>
      </g>
      <g
         id="g109"
         transform="translate(135.7323,2976.3779)">
        <path
           d="m 0,0 h -15 m 2152.984,0 h 15 M 0,-2834.646 h -15 m 2152.984,0 h 15 M 6,6 v 15 m 0,-2861.646 v -15 M 2131.984,6 v 15 m 0,-2861.646 v -15"
           style="fill:none;stroke:#ffffff;stroke-width:1.25;stroke-linecap:butt;stroke-linejoin:miter;stroke-miterlimit:10;stroke-dasharray:none;stroke-opacity:1"
           id="path111" />
      </g>
      <g
         id="g113"
         transform="translate(135.7323,2976.3779)">
        <path
           d="m 0,0 h -15 m 2152.984,0 h 15 M 0,-2834.646 h -15 m 2152.984,0 h 15 M 6,6 v 15 m 0,-2861.646 v -15 M 2131.984,6 v 15 m 0,-2861.646 v -15"
           style="fill:none;stroke:#b1212c;stroke-width:0.25;stroke-linecap:butt;stroke-linejoin:miter;stroke-miterlimit:10;stroke-dasharray:none;stroke-opacity:1"
           id="path115" />
      </g>
    </g>
  </g>
</svg>
